<svg xmlns="http://www.w3.org/2000/svg" width="38.752" height="41.813" viewBox="0 0 38.752 41.813">
  <g id="Group_7543" data-name="Group 7543" transform="translate(-410 1139.26)">
    <path id="Path_12601" data-name="Path 12601" d="M30.772,0l3.211,1.852q4.581,2.645,9.165,5.29a6.886,6.886,0,0,1,3.521,4.9,6.051,6.051,0,0,1,.074,1.1c.005,4.676,0,9.351.013,14.027,0,.5-.112.668-.64.658a12.365,12.365,0,0,1-3.538-.37,8.172,8.172,0,0,1-4.775-3.8c-2.654-4.579-5.318-9.152-7.934-13.752a8.154,8.154,0,0,1,0-8.445c.244-.441.506-.871.761-1.306A1.852,1.852,0,0,1,30.772,0" transform="translate(401.996 -1139.26)" fill="#f37022"/>
    <path id="Path_12602" data-name="Path 12602" d="M15.961.021c2.217,3.006,2.881,6.45.928,9.884q-3.924,6.9-7.941,13.749a8.092,8.092,0,0,1-7.238,4.172c-.437.009-.875-.009-1.312,0-.275.009-.412-.09-.4-.376.006-.118,0-.236,0-.353V13.276A6.6,6.6,0,0,1,3.458,7.245C7.483,4.878,11.539,2.564,15.583.228c.115-.066.233-.128.378-.207" transform="translate(410 -1139.266)" fill="#f37022"/>
    <path id="Path_12603" data-name="Path 12603" d="M4.679,44.4c1.258-2.743,3.112-4.755,6.11-5.454a8.942,8.942,0,0,1,1.99-.244c5.263-.019,10.525-.048,15.787,0A8.139,8.139,0,0,1,35.8,42.8c.281.458.536.932.8,1.4a1.275,1.275,0,0,1,.065.187c-.128.084-.26.18-.4.261-4,2.312-7.993,4.633-12,6.928a6.811,6.811,0,0,1-7.182,0q-6.011-3.446-12-6.928c-.129-.075-.253-.159-.4-.254" transform="translate(408.695 -1150.048)" fill="#f37022"/>
  </g>
</svg>
