<svg xmlns="http://www.w3.org/2000/svg" width="429.999" height="51.402" viewBox="0 0 429.999 51.402">
  <g id="Group_7093" data-name="Group 7093" transform="translate(0 0)">
    <g id="Group_7542" data-name="Group 7542" transform="translate(0 0)">
      <path id="Path_12100" data-name="Path 12100" d="M30.772,0l3.211,1.852q4.581,2.645,9.165,5.29a6.886,6.886,0,0,1,3.521,4.9,6.051,6.051,0,0,1,.074,1.1c.005,4.676,0,9.351.013,14.027,0,.5-.112.668-.64.658a12.365,12.365,0,0,1-3.538-.37,8.172,8.172,0,0,1-4.775-3.8c-2.654-4.579-5.318-9.152-7.934-13.752a8.154,8.154,0,0,1,0-8.445c.244-.441.506-.871.761-1.306A1.852,1.852,0,0,1,30.772,0" transform="translate(-8.004 0)" fill="#f37022"/>
      <path id="Path_12101" data-name="Path 12101" d="M15.961.021c2.217,3.006,2.881,6.45.928,9.884q-3.924,6.9-7.941,13.749a8.092,8.092,0,0,1-7.238,4.172c-.437.009-.875-.009-1.312,0-.275.009-.412-.09-.4-.376.006-.118,0-.236,0-.353V13.276A6.6,6.6,0,0,1,3.458,7.245C7.483,4.878,11.539,2.564,15.583.228c.115-.066.233-.128.378-.207" transform="translate(0 -0.006)" fill="#f37022"/>
      <path id="Path_12102" data-name="Path 12102" d="M4.679,44.4c1.258-2.743,3.112-4.755,6.11-5.454a8.942,8.942,0,0,1,1.99-.244c5.263-.019,10.525-.048,15.787,0A8.139,8.139,0,0,1,35.8,42.8c.281.458.536.932.8,1.4a1.275,1.275,0,0,1,.065.187c-.128.084-.26.18-.4.261-4,2.312-7.993,4.633-12,6.928a6.811,6.811,0,0,1-7.182,0q-6.011-3.446-12-6.928c-.129-.075-.253-.159-.4-.254" transform="translate(-1.305 -10.788)" fill="#f37022"/>
      <path id="Path_12103" data-name="Path 12103" d="M118.141,19.282h4.591V21.9c.1-.027.139-.025.149-.043a4.834,4.834,0,0,1,4.539-2.569,36.554,36.554,0,0,1,4.569.233,4.543,4.543,0,0,1,3.891,3.165,1.2,1.2,0,0,0,.059.137c0,.009.025.012.062.027a.726.726,0,0,0,.1-.155,4.607,4.607,0,0,1,4.282-3.354,19.283,19.283,0,0,1,5.726.176,5.025,5.025,0,0,1,4.207,4.718,23.162,23.162,0,0,1,.216,2.963c.024,3.92,0,11.991-.014,12.135h-4.85c0-.23.007-8.362-.008-12.215a8.739,8.739,0,0,0-.172-1.7,2.089,2.089,0,0,0-2.157-1.815c-1.5-.03-2.994-.037-4.491,0a2.127,2.127,0,0,0-2.327,2.424c0,4.223,0,13.069,0,13.3H131.7c0-.2,0-9.043,0-13.266a2.143,2.143,0,0,0-2.42-2.469c-1.345-.017-2.691-.014-4.036,0a2.233,2.233,0,0,0-2.327,2.37c0,4.224,0,13.1,0,13.361h-4.77Z" transform="translate(-32.957 -5.36)" fill="#0f1940"/>
      <path id="Path_12104" data-name="Path 12104" d="M101.43,37c-1.841,0-3.589.009-5.336-.014a.668.668,0,0,1-.427-.33c-.81-1.375-1.619-2.751-2.4-4.146a2.964,2.964,0,0,0-2.8-1.632q-6.381.01-12.763,0a2.947,2.947,0,0,0-2.766,1.6c-.774,1.376-1.582,2.734-2.358,4.11a.7.7,0,0,1-.7.422c-1.68-.022-3.36-.01-5.1-.01.082-.171.136-.3.207-.428q7.331-12.7,14.659-25.411a.7.7,0,0,1,.708-.414c1.143.024,2.287.028,3.43,0a.761.761,0,0,1,.781.456Q92.3,21.169,98.054,31.118q1.538,2.663,3.074,5.326c.089.156.172.317.3.56M90.186,27.225c-.05-.1-3.705-6.471-5.486-9.552-.392-.676-.814-.666-1.216.03-1.782,3.082-5.433,9.458-5.54,9.7a4.218,4.218,0,0,1,2.871-.877q3.327.028,6.654,0a4.816,4.816,0,0,1,2.718.7" transform="translate(-18.631 -2.999)" fill="#0f1940"/>
      <path id="Path_12105" data-name="Path 12105" d="M169.564,10.048,174.47,8.39V18.967c.112-.1.172-.125.2-.172a4.747,4.747,0,0,1,4.671-2.561c2.17.029,4.34,0,6.509.053a10.29,10.29,0,0,1,2.237.33,5.437,5.437,0,0,1,4.235,4.722,14.5,14.5,0,0,1,.237,2.353c.023,2,.017,4.005-.04,6.006a10.193,10.193,0,0,1-.348,2.184,5.461,5.461,0,0,1-4.93,4.255,18.321,18.321,0,0,1-2.71.2c-2.4,0-4.81-.005-7.211-.1a4.742,4.742,0,0,1-3.519-1.513,12.073,12.073,0,0,1-.889-1.326,3.311,3.311,0,0,1-3.344,2.953Zm7.177,10.558a2.215,2.215,0,0,0-2.265,2.427q0,3,0,6.008a2.818,2.818,0,0,0,2.874,2.979q3.834.036,7.67,0c1.575-.017,2.4-.7,2.46-2.267.094-2.3.094-4.606,0-6.9-.064-1.571-.939-2.263-2.516-2.271-1.295-.006-6.78-.028-8.224.031" transform="translate(-47.302 -2.34)" fill="#0f1940"/>
      <path id="Path_12106" data-name="Path 12106" d="M228.013,35.062c-.217,1.473-.422,2.867-.628,4.271-.081.018-9.456.056-14.08.016a8.038,8.038,0,0,1-4.282-1.138,5.464,5.464,0,0,1-2.566-4.3c-.141-1.417-.12-2.853-.124-4.281a42.07,42.07,0,0,1,.1-4.636,5.8,5.8,0,0,1,5.67-5.577c1.216-.125,2.448-.128,3.674-.138,1.866-.015,3.733-.012,5.6.027a7.859,7.859,0,0,1,4.829,1.475,5.305,5.305,0,0,1,2.079,3.894c.162,2.106.136,4.226.193,6.409-.289,0-8.786-.022-12.839.011a5.443,5.443,0,0,1-4.287-1.354l-.149.059c.069,1.211.052,2.435.234,3.628.152.993.949,1.5,2.113,1.617.25.025.5.02.756.02,4.355,0,13.465,0,13.71,0m-10.432-7.309c1.781,0,3.562,0,5.342,0,.722,0,.962-.247.962-.976a6.757,6.757,0,0,0-.044-.9,2.236,2.236,0,0,0-2.581-2.26c-1.663,0-3.327,0-4.99,0-.857,0-1.714-.014-2.57,0a2.212,2.212,0,0,0-2.422,2.32c-.017.268-.017.538-.016.806,0,.779.239,1.014,1.027,1.014q2.645,0,5.292,0" transform="translate(-57.555 -5.375)" fill="#0f1940"/>
      <path id="Path_12107" data-name="Path 12107" d="M246.686,39.371h-4.852V19.338h4.641v2.694a2.234,2.234,0,0,0,.223-.247,4.5,4.5,0,0,1,3.64-2.4c1.21-.111,2.439-.022,3.713-.022,0,1.335.008,2.676-.019,4.017,0,.084-.282.231-.434.234-1.53.017-3.061,0-4.592.013a2.14,2.14,0,0,0-2.228,1.611c-.074.234-.092,13.909-.092,14.132" transform="translate(-67.463 -5.392)" fill="#0f1940"/>
      <rect id="Rectangle_1594" data-name="Rectangle 1594" width="1.239" height="8.677" transform="translate(95.919 42.651)" fill="#464749"/>
      <path id="Path_12108" data-name="Path 12108" d="M143.615,62.714a2.851,2.851,0,0,1,.738,2.126v3.78h-1.19V64.976a2.017,2.017,0,0,0-.459-1.438,1.723,1.723,0,0,0-1.314-.483,2.045,2.045,0,0,0-1.524.564,2.2,2.2,0,0,0-.558,1.617V68.62h-1.19V62.051h1.141v.991a2.31,2.31,0,0,1,.973-.781,3.4,3.4,0,0,1,1.394-.273,2.713,2.713,0,0,1,1.989.725" transform="translate(-38.53 -17.293)" fill="#464749"/>
      <path id="Path_12109" data-name="Path 12109" d="M155.838,58.43v9.2H154.7V66.586a2.567,2.567,0,0,1-1,.83,3.094,3.094,0,0,1-1.338.286,3.456,3.456,0,0,1-1.71-.421,3.025,3.025,0,0,1-1.184-1.184,3.528,3.528,0,0,1-.428-1.754,3.489,3.489,0,0,1,.428-1.747,3.029,3.029,0,0,1,1.184-1.178,3.456,3.456,0,0,1,1.71-.421,3.152,3.152,0,0,1,1.3.266,2.528,2.528,0,0,1,.991.787V58.43Zm-2.255,7.939a2.044,2.044,0,0,0,.793-.818,2.7,2.7,0,0,0,0-2.416,2,2,0,0,0-.793-.813,2.389,2.389,0,0,0-2.263,0,2.054,2.054,0,0,0-.793.813,2.651,2.651,0,0,0,0,2.416,2.1,2.1,0,0,0,.793.818,2.342,2.342,0,0,0,2.263,0" transform="translate(-41.575 -16.3)" fill="#464749"/>
      <path id="Path_12110" data-name="Path 12110" d="M167.7,62.075v6.569h-1.128v-.992a2.391,2.391,0,0,1-.948.787,2.96,2.96,0,0,1-1.283.279,2.867,2.867,0,0,1-2.07-.725,2.829,2.829,0,0,1-.756-2.139v-3.78h1.19v3.644a2.04,2.04,0,0,0,.459,1.444,1.712,1.712,0,0,0,1.314.489,1.958,1.958,0,0,0,1.488-.57,2.236,2.236,0,0,0,.546-1.612v-3.4Z" transform="translate(-45.057 -17.317)" fill="#464749"/>
      <path id="Path_12111" data-name="Path 12111" d="M173.251,68.478a3.394,3.394,0,0,1-1.165-.552l.5-.942a3.549,3.549,0,0,0,1.053.5,4.335,4.335,0,0,0,1.252.186q1.561,0,1.562-.892a.579.579,0,0,0-.211-.472,1.343,1.343,0,0,0-.526-.254q-.317-.08-.9-.18a8.652,8.652,0,0,1-1.295-.286,1.986,1.986,0,0,1-.862-.546,1.513,1.513,0,0,1-.36-1.078,1.685,1.685,0,0,1,.744-1.431,3.329,3.329,0,0,1,2-.539,5.465,5.465,0,0,1,1.314.162,3.513,3.513,0,0,1,1.078.433l-.508.942a3.415,3.415,0,0,0-1.9-.521,2.192,2.192,0,0,0-1.152.248.747.747,0,0,0-.4.657.626.626,0,0,0,.223.508,1.4,1.4,0,0,0,.552.273c.218.058.527.125.924.2a9.927,9.927,0,0,1,1.283.292,1.914,1.914,0,0,1,.836.526,1.468,1.468,0,0,1,.348,1.042,1.64,1.64,0,0,1-.763,1.418,3.592,3.592,0,0,1-2.076.527,5.5,5.5,0,0,1-1.549-.217" transform="translate(-48.006 -17.293)" fill="#464749"/>
      <path id="Path_12112" data-name="Path 12112" d="M185.18,67.7a1.778,1.778,0,0,1-.645.341,2.688,2.688,0,0,1-.793.118,2.1,2.1,0,0,1-1.537-.534,2.032,2.032,0,0,1-.546-1.524V62.5h-1.115v-.979h1.115V60.081h1.19v1.438h1.883V62.5H182.85v3.558a1.156,1.156,0,0,0,.266.818.993.993,0,0,0,.762.284,1.428,1.428,0,0,0,.929-.31Z" transform="translate(-50.365 -16.76)" fill="#464749"/>
      <path id="Path_12113" data-name="Path 12113" d="M191.025,62.286a3.342,3.342,0,0,1,1.475-.3v1.153a2.228,2.228,0,0,0-.273-.013,2,2,0,0,0-1.518.577,2.281,2.281,0,0,0-.552,1.642V68.62h-1.19V62.051h1.141v1.1a2.028,2.028,0,0,1,.917-.868" transform="translate(-52.715 -17.293)" fill="#464749"/>
      <path id="Path_12114" data-name="Path 12114" d="M195.832,59.5a.734.734,0,0,1-.229-.546.752.752,0,0,1,.229-.552.781.781,0,0,1,.577-.229.806.806,0,0,1,.576.217.712.712,0,0,1,.229.539.767.767,0,0,1-.229.564.783.783,0,0,1-.576.229.793.793,0,0,1-.577-.222m-.019,1.487H197v6.569h-1.19Z" transform="translate(-54.566 -16.228)" fill="#464749"/>
      <path id="Path_12115" data-name="Path 12115" d="M204.976,62.658a2.584,2.584,0,0,1,.725,2V68.62h-1.128v-.867a1.878,1.878,0,0,1-.849.7,3.23,3.23,0,0,1-1.307.242,2.736,2.736,0,0,1-1.767-.533,1.709,1.709,0,0,1-.663-1.4,1.726,1.726,0,0,1,.632-1.394,3.117,3.117,0,0,1,2.008-.526h1.884V64.6a1.516,1.516,0,0,0-.446-1.177,1.883,1.883,0,0,0-1.314-.41,3.474,3.474,0,0,0-1.141.193,2.936,2.936,0,0,0-.942.514l-.5-.892a3.611,3.611,0,0,1,1.215-.627,5.093,5.093,0,0,1,1.5-.216,2.973,2.973,0,0,1,2.089.669m-1.184,4.815a1.737,1.737,0,0,0,.719-.861v-.918h-1.834q-1.513,0-1.513,1.017a.92.92,0,0,0,.384.781,1.756,1.756,0,0,0,1.066.286,2.209,2.209,0,0,0,1.177-.3" transform="translate(-55.789 -17.293)" fill="#464749"/>
      <rect id="Rectangle_1595" data-name="Rectangle 1595" width="1.19" height="9.198" transform="translate(152.117 42.131)" fill="#464749"/>
      <path id="Path_12116" data-name="Path 12116" d="M226.668,59.958a3.027,3.027,0,0,1,0,4.437,4.017,4.017,0,0,1-2.652.805h-2.145v2.628h-1.239V59.152h3.384a4.017,4.017,0,0,1,2.652.806m-.892,3.662a1.993,1.993,0,0,0,0-2.888,2.8,2.8,0,0,0-1.8-.5h-2.108v3.891h2.108a2.794,2.794,0,0,0,1.8-.5" transform="translate(-61.549 -16.501)" fill="#464749"/>
      <path id="Path_12117" data-name="Path 12117" d="M236.83,62.658a2.584,2.584,0,0,1,.725,2V68.62h-1.128v-.867a1.878,1.878,0,0,1-.849.7,3.23,3.23,0,0,1-1.307.242,2.736,2.736,0,0,1-1.767-.533,1.709,1.709,0,0,1-.663-1.4,1.726,1.726,0,0,1,.632-1.394,3.117,3.117,0,0,1,2.008-.526h1.884V64.6a1.516,1.516,0,0,0-.446-1.177,1.883,1.883,0,0,0-1.314-.41,3.474,3.474,0,0,0-1.141.193,2.936,2.936,0,0,0-.942.514l-.5-.892a3.61,3.61,0,0,1,1.215-.627,5.093,5.093,0,0,1,1.5-.216,2.973,2.973,0,0,1,2.089.669m-1.184,4.815a1.737,1.737,0,0,0,.719-.861v-.918H234.53q-1.513,0-1.513,1.017a.92.92,0,0,0,.384.781,1.756,1.756,0,0,0,1.066.286,2.209,2.209,0,0,0,1.177-.3" transform="translate(-64.675 -17.293)" fill="#464749"/>
      <path id="Path_12118" data-name="Path 12118" d="M244.882,62.286a3.342,3.342,0,0,1,1.475-.3v1.153a2.228,2.228,0,0,0-.273-.013,2,2,0,0,0-1.518.577,2.281,2.281,0,0,0-.552,1.642V68.62h-1.19V62.051h1.141v1.1a2.028,2.028,0,0,1,.917-.868" transform="translate(-67.739 -17.293)" fill="#464749"/>
      <path id="Path_12119" data-name="Path 12119" d="M252.306,64.566l-1.363,1.264v1.8h-1.19v-9.2h1.19v5.9l3.582-3.272h1.438L253.2,63.772l3.037,3.855h-1.463Z" transform="translate(-69.672 -16.3)" fill="#464749"/>
      <path id="Path_12120" data-name="Path 12120" d="M292.8,22.145h-6.782V19.686h16.361v2.459h-6.781V39.467h-2.8Z" transform="translate(-79.788 -5.492)" fill="#464749"/>
      <path id="Path_12121" data-name="Path 12121" d="M323.051,32.478H312.539l-2.176,4.945h-2.911l8.958-19.78h2.8l8.986,19.78h-2.967Zm-2.628-16.446-2.6-2.175-2.6,2.175h-2.459l3.758-3.674h2.6l3.759,3.674Zm1.639,14.186-4.267-9.692-4.267,9.692Z" transform="translate(-85.768 -3.447)" fill="#464749"/>
      <path id="Path_12122" data-name="Path 12122" d="M345.03,32.628v6.838h-2.8V32.572l-7.856-12.886H337.4l6.33,10.428,6.358-10.428h2.8Z" transform="translate(-93.279 -5.492)" fill="#464749"/>
      <path id="Path_12123" data-name="Path 12123" d="M390.568,30.947a4.981,4.981,0,0,1,.989,3.178,4.575,4.575,0,0,1-1.936,3.957,9.632,9.632,0,0,1-5.636,1.384h-9.438V19.686h8.872a8.745,8.745,0,0,1,5.242,1.357,4.4,4.4,0,0,1,1.851,3.758,4.888,4.888,0,0,1-.721,2.684,4.692,4.692,0,0,1-1.935,1.724,5.061,5.061,0,0,1,2.713,1.738m-13.2-8.972V28.3h5.794a5.883,5.883,0,0,0,3.348-.8,2.681,2.681,0,0,0,1.173-2.36,2.679,2.679,0,0,0-1.173-2.359,5.877,5.877,0,0,0-3.348-.805Zm10.117,14.411A2.755,2.755,0,0,0,388.7,33.9q0-3.306-4.833-3.306h-6.5v6.584h6.5a6.7,6.7,0,0,0,3.618-.792" transform="translate(-104.486 -5.492)" fill="#464749"/>
      <path id="Path_12124" data-name="Path 12124" d="M415.658,31.319H405.146l-2.176,4.945h-2.911l8.958-19.781h2.8L420.8,36.264h-2.967Zm-8.378-17.082a2.938,2.938,0,0,1-1.428-2.19h1.808a1.525,1.525,0,0,0,.877,1.088,4.58,4.58,0,0,0,3.786,0,1.524,1.524,0,0,0,.876-1.088h1.809a2.94,2.94,0,0,1-1.428,2.19,6.565,6.565,0,0,1-6.3,0m7.389,14.822L410.4,19.366l-4.267,9.693ZM411.815,8.2h3.08L410.713,11.4H408.48Z" transform="translate(-111.602 -2.288)" fill="#464749"/>
      <path id="Path_12125" data-name="Path 12125" d="M435.376,38.292a9.663,9.663,0,0,1-3.744-3.617,10.023,10.023,0,0,1-1.356-5.185,10.023,10.023,0,0,1,1.356-5.185,9.643,9.643,0,0,1,3.758-3.617,11,11,0,0,1,5.369-1.314A11.205,11.205,0,0,1,445,20.15a8.681,8.681,0,0,1,3.278,2.3l-1.836,1.78a7.371,7.371,0,0,0-5.567-2.346,8.06,8.06,0,0,0-3.984.989A7.176,7.176,0,0,0,434.1,25.6a8.034,8.034,0,0,0,0,7.771,7.173,7.173,0,0,0,2.784,2.727,8.06,8.06,0,0,0,3.984.989,7.388,7.388,0,0,0,5.567-2.374l1.836,1.78a8.8,8.8,0,0,1-3.292,2.317,11.145,11.145,0,0,1-4.253.79,10.922,10.922,0,0,1-5.355-1.314" transform="translate(-120.032 -5.404)" fill="#464749"/>
      <path id="Path_12126" data-name="Path 12126" d="M488.4,19.686V39.467h-2.826V30.65h-11.36v8.817h-2.826V19.686h2.826v8.506h11.36V19.686Z" transform="translate(-131.5 -5.492)" fill="#464749"/>
      <path id="Path_12127" data-name="Path 12127" d="M506.118,35.558a9.7,9.7,0,0,1-3.772-3.631,10.436,10.436,0,0,1,0-10.343,9.712,9.712,0,0,1,3.772-3.631,11.686,11.686,0,0,1,10.767,0,9.649,9.649,0,0,1,3.759,3.617A10.031,10.031,0,0,1,522,26.756a10.032,10.032,0,0,1-1.356,5.186,9.648,9.648,0,0,1-3.759,3.617,11.686,11.686,0,0,1-10.767,0m9.311-2.19a7.254,7.254,0,0,0,2.741-2.727,8.028,8.028,0,0,0,0-7.771,7.257,7.257,0,0,0-2.741-2.726,7.77,7.77,0,0,0-3.914-.989,7.921,7.921,0,0,0-3.941.989,7.2,7.2,0,0,0-2.77,2.726,8.023,8.023,0,0,0,0,7.771,7.194,7.194,0,0,0,2.77,2.727,7.921,7.921,0,0,0,3.941.989,7.77,7.77,0,0,0,3.914-.989m-1.343-18.113-2.572-1.583-2.571,1.583h-2.486l3.786-2.826h2.543l3.787,2.826Zm-2.26-5.68h3.08l3.306,3.193h-2.2Z" transform="translate(-139.755 -2.671)" fill="#464749"/>
      <path id="Path_12128" data-name="Path 12128" d="M558.1,39.467,552.165,31.3l-5.85,8.166h-3.25L550.5,29.323l-6.98-9.637h3.222l5.539,7.6,5.481-7.6h3.08l-6.98,9.552,7.489,10.229Z" transform="translate(-151.496 -5.492)" fill="#464749"/>
      <path id="Path_12129" data-name="Path 12129" d="M583.2,32.477H572.685l-2.176,4.946H567.6l8.957-19.781h2.8l8.986,19.781h-2.966Zm-.989-2.26-4.267-9.693-4.267,9.693Zm-2.515-17.859h3.447l-4.747,3.674H575.85Z" transform="translate(-158.34 -3.447)" fill="#464749"/>
      <rect id="Rectangle_1596" data-name="Rectangle 1596" width="0.721" height="20.082" transform="translate(195.995 13.893)" fill="#464749"/>
    </g>
  </g>
</svg>
